<?xml version="1.0" encoding="utf-8"?>
<!-- Svg Vector Icons : http://www.onlinewebfonts.com/icon -->
<!DOCTYPE svg PUBLIC "-//W3C//DTD SVG 1.1//EN" "http://www.w3.org/Graphics/SVG/1.1/DTD/svg11.dtd">
<svg version="1.1" xmlns="http://www.w3.org/2000/svg" xmlns:xlink="http://www.w3.org/1999/xlink" x="0px" y="0px" viewBox="0 0 1000 1000" enable-background="new 0 0 1000 1000" xml:space="preserve">
<metadata> Svg Vector Icons : http://www.onlinewebfonts.com/icon </metadata>
<g><g><g><path d="M298.3,990H762c24.8,0,45-20.2,45-45V210.5c0-24.8-20.2-45-45-45h-56.4C695.1,78.1,620.4,10,530.1,10c-36.4,0-70.1,11.2-98.3,30.1c-26.5-11.6-71.5-24.3-116.9-4.9c-57.8,24.7-97,93.3-116.4,203.9c-12.1,69-4.1,109.8,24.7,124.7c7.3,3.8,15.6,5.5,24.7,5.5c1.7,0,3.6-0.5,5.4-0.6V945C253.3,969.8,273.5,990,298.3,990z M652.8,187.9l-0.6,12.1l8,8.5c5.3,5.7,13.5,11,37.3,11H753v716.5H307.3V352.9c60.4-28.4,131.1-87.6,178.4-130.7c12.2,9.9,27.5,16.1,44.5,16.1c39.1,0,71-31.8,71-71s-31.8-71-71-71c-39.1,0-71,31.8-71,71c0,15.7,5.3,30.1,13.9,41.8c-48.7,44-113.1,96.6-165.8,123.9V219.5h55.4c23.8,0,32-5.3,37.3-11l8.2-10l-0.9-11.8C407.3,119,462.4,64,530.1,64C597.8,63.9,652.9,119,652.8,187.9z M477.1,167.3c0-29.2,23.8-53,53-53c29.2,0,53,23.8,53,53s-23.8,53-53,53c-11.7,0-22.4-3.9-31.2-10.4c18.9-17.6,32.5-31.2,37.6-36.3c3.5-3.5,3.5-9.2-0.1-12.7c-3.5-3.5-9.2-3.5-12.7,0.1c-9.9,10-22.7,22.4-37.4,36.1C480.5,188.6,477.1,178.4,477.1,167.3z M231.5,347.8c-20.2-10.5-25.5-47-15.2-105.6C234.5,138.1,270.1,74,321.9,51.8C356,37.2,391,44.1,415,52.9c-32.6,28.1-55,67.8-60.4,112.7h-56.4c-24.8,0-45,20.2-45,45v140.9C245,352,237.6,351,231.5,347.8z"/></g></g><g></g><g></g><g></g><g></g><g></g><g></g><g></g><g></g><g></g><g></g><g></g><g></g><g></g><g></g><g></g></g>
</svg>